HIERARCHY
ROOT Hips
{
	OFFSET 0.000000 0.000000 0.000000
	CHANNELS 6 Xposition Yposition Zposition Zrotation Yrotation Xrotation 
	JOINT LeftUpLeg_virtual
	{
		OFFSET 0.000000 0.000000 0.000000
		CHANNELS 3 Zrotation Yrotation Xrotation
		JOINT LeftUpLeg
		{
			OFFSET 8.479694 -4.795517 -0.379053
			CHANNELS 3 Zrotation Yrotation Xrotation
			JOINT LeftLeg
			{
				OFFSET 0.485052 -32.551468 0.112863
				CHANNELS 3 Zrotation Yrotation Xrotation
				JOINT LeftFoot
				{
					OFFSET 0.438033 -32.635670 -3.012641
					CHANNELS 3 Zrotation Yrotation Xrotation
					JOINT LeftToeBase
					{
						OFFSET 0.970169 -13.225353 11.864223
						CHANNELS 3 Zrotation Yrotation Xrotation
						End Site
						{
							OFFSET 0.000000 0.000000 0.000000
						}
					}
				}
			}
		}
	}
	JOINT RightUpLeg_virtual
	{
		OFFSET 0.000000 0.000000 0.000000
		CHANNELS 3 Zrotation Yrotation Xrotation
		JOINT RightUpLeg
		{
			OFFSET -8.479694 -4.795517 -0.379053
			CHANNELS 3 Zrotation Yrotation Xrotation
			JOINT RightLeg
			{
				OFFSET -0.484100 -32.551483 0.112903
				CHANNELS 3 Zrotation Yrotation Xrotation
				JOINT RightFoot
				{
					OFFSET -0.438985 -32.635651 -3.012681
					CHANNELS 3 Zrotation Yrotation Xrotation
					JOINT RightToeBase
					{
						OFFSET -0.970169 -13.225354 11.864223
						CHANNELS 3 Zrotation Yrotation Xrotation
						End Site
						{
							OFFSET 0.000000 0.000000 0.000000
						}
					}
				}
			}
		}
	}
	JOINT Spine_virtual
	{
		OFFSET 0.000000 0.000000 0.000000
		CHANNELS 3 Zrotation Yrotation Xrotation
		JOINT Spine
		{
			OFFSET 0.000000 7.722015 1.166203
			CHANNELS 3 Zrotation Yrotation Xrotation
			JOINT Spine1
			{
				OFFSET 0.000000 12.024086 0.248766
				CHANNELS 3 Zrotation Yrotation Xrotation
				JOINT Spine2
				{
					OFFSET -0.000000 11.503036 -0.491240
					CHANNELS 3 Zrotation Yrotation Xrotation
					JOINT Neck_virtual
					{
						OFFSET 0.000000 0.000000 0.000000
						CHANNELS 3 Zrotation Yrotation Xrotation
						JOINT Neck
						{
							OFFSET 0.000000 18.430687 -3.123054
							CHANNELS 3 Zrotation Yrotation Xrotation
							JOINT Head
							{
								OFFSET -0.000000 9.051071 1.034021
								CHANNELS 3 Zrotation Yrotation Xrotation
								End Site
								{
									OFFSET 0.000000 0.000000 0.000000
								}
							}
						}
					}
					JOINT LeftShoulder_virtual
					{
						OFFSET 0.000000 0.000000 0.000000
						CHANNELS 3 Zrotation Yrotation Xrotation
						JOINT LeftShoulder
						{
							OFFSET 6.197824 13.665230 -4.064723
							CHANNELS 3 Zrotation Yrotation Xrotation
							JOINT LeftArm
							{
								OFFSET 7.778132 -0.187073 -1.709282
								CHANNELS 3 Zrotation Yrotation Xrotation
								JOINT LeftForeArm
								{
									OFFSET 21.954697 0.000000 -2.041093
									CHANNELS 3 Zrotation Yrotation Xrotation
									JOINT LeftHand
									{
										OFFSET 22.992908 0.000000 -0.870901
										CHANNELS 3 Zrotation Yrotation Xrotation
										End Site
										{
											OFFSET 0.000000 0.000000 0.000000
										}
									}
								}
							}
						}
					}
					JOINT RightShoulder_virtual
					{
						OFFSET 0.000000 0.000000 0.000000
						CHANNELS 3 Zrotation Yrotation Xrotation
						JOINT RightShoulder
						{
							OFFSET -6.197824 13.665230 -4.064723
							CHANNELS 3 Zrotation Yrotation Xrotation
							JOINT RightArm
							{
								OFFSET -7.778132 -0.187073 -1.709282
								CHANNELS 3 Zrotation Yrotation Xrotation
								JOINT RightForeArm
								{
									OFFSET -21.954697 0.000000 -2.041093
									CHANNELS 3 Zrotation Yrotation Xrotation
									JOINT RightHand
									{
										OFFSET -22.992908 0.000000 -0.870901
										CHANNELS 3 Zrotation Yrotation Xrotation
										End Site
										{
											OFFSET 0.000000 0.000000 0.000000
										}
									}
								}
							}
						}
					}
				}
			}
		}
	}
}
MOTION
Frames: 11
Frame Time: 0.033333
-7.294284 81.265274 1.593105 179.504406 4.620961 -179.458917 -3.822630 -2.049411 13.729442 6.926723 -1.263579 -37.994491 0.920701 0.382499 29.489738 -6.844586 -4.677909 -4.010971 0.000000 0.000000 0.000000 1.511322 -2.872141 12.654738 -5.467113 -6.062095 -23.339682 -0.148510 8.657728 36.211754 8.352305 8.286892 -7.832350 0.000000 0.000000 0.000000 1.051771 0.631314 3.082203 -7.187705 -0.482124 -0.545016 -1.116774 -0.778142 8.966700 0.043308 0.097844 0.065417 -1.008048 -0.239827 9.443137 -9.315824 4.396174 -9.638446 0.000000 0.000000 0.000000 0.286499 0.510020 6.695318 6.546522 -3.258201 -2.640783 -25.668520 -33.372229 -21.041451 7.471662 -70.542481 4.401637 0.000000 0.000000 0.000000 -3.468346 2.181222 5.740608 0.282599 5.495818 -11.851494 -1.488892 34.590837 -35.765439 -56.061913 83.924460 -57.159490 0.000000 0.000000 0.000000 
-8.117916 81.423653 0.824212 179.721197 4.376324 -179.448631 -3.976431 -1.889417 14.002835 6.474294 -0.587223 -37.500771 0.462779 0.600263 29.138693 -7.250687 -4.592955 -4.424945 0.000000 0.000000 0.000000 1.546792 -2.577328 12.665569 -5.487316 -6.604443 -24.084796 0.020691 8.980030 36.908129 8.015358 7.499773 -4.910599 0.000000 0.000000 0.000000 1.048995 0.653434 3.336299 -7.015707 -0.652705 -0.581701 -1.212359 -0.877009 9.066911 0.033462 -0.015536 0.091093 -1.188754 -0.006214 9.590697 -9.952703 4.670764 -9.878561 0.000000 0.000000 0.000000 0.141420 0.573413 6.847543 6.838302 -3.392967 -2.747690 -25.254783 -36.548144 -20.269794 7.885164 -72.415981 4.830505 0.000000 0.000000 0.000000 -3.638384 2.283372 5.855256 -0.889452 4.714154 -13.066979 -0.681924 36.733522 -34.435311 -92.233181 84.910801 -94.422728 0.000000 0.000000 0.000000 
-8.944338 81.615654 0.082492 179.651542 4.151879 -179.493902 -4.217706 -1.718296 14.279345 5.693420 0.117596 -36.925382 0.279317 0.838257 28.634515 -7.647122 -4.594978 -4.751709 0.000000 0.000000 0.000000 1.226769 -2.131305 12.698895 -5.382630 -7.113721 -24.883641 -0.002055 8.478723 37.526159 7.619831 5.714556 -2.255887 0.000000 0.000000 0.000000 0.909984 0.870765 3.701325 -6.943021 -0.804894 -0.599882 -1.349370 -1.011418 9.184333 0.063206 -0.130607 0.088992 -1.365024 0.056197 9.728929 -10.532313 4.981673 -10.085457 0.000000 0.000000 0.000000 0.025957 0.427747 7.030924 7.327272 -3.551754 -2.696884 -24.913820 -39.643893 -19.158448 8.817015 -74.641714 4.970297 0.000000 0.000000 0.000000 -3.797299 2.257154 5.884780 -2.102940 3.833173 -14.126111 0.595086 38.830192 -33.046579 -128.172229 83.448806 -131.558883 0.000000 0.000000 0.000000 
-9.748595 81.829414 -0.623038 179.798282 4.215990 -179.547519 -4.435909 -1.454120 14.532155 5.122682 1.022218 -36.369473 0.092847 1.150595 28.161922 -8.077774 -4.757017 -5.056065 0.000000 0.000000 0.000000 1.142405 -1.639109 12.813277 -5.194425 -7.681604 -25.655758 -0.579979 7.247658 37.984229 7.303783 3.677214 -0.367594 0.000000 0.000000 0.000000 0.842988 0.869955 4.055513 -6.843304 -1.013877 -0.644490 -1.485801 -0.983496 9.285251 0.027258 -0.096608 0.088593 -1.569461 -0.077015 9.994183 -10.975773 5.178656 -10.208496 0.000000 0.000000 0.000000 -0.162688 0.386774 7.117306 7.945790 -3.730849 -2.669783 -24.676237 -42.711840 -17.626539 9.753614 -77.753070 5.351376 0.000000 0.000000 0.000000 -3.960403 2.198049 6.022362 -3.244631 3.010438 -15.017651 2.021714 41.061103 -31.921121 -146.047927 80.534002 -150.710310 0.000000 0.000000 0.000000 
-10.519611 82.038239 -1.309068 179.720268 4.279583 -179.586738 -4.848677 -1.149886 14.782215 4.676236 1.710075 -35.934984 -0.064622 1.758579 27.813582 -8.382022 -4.967761 -5.294022 0.000000 0.000000 0.000000 0.976688 -1.260421 13.094268 -5.204962 -8.293721 -26.248577 -1.270798 6.315371 38.214222 7.219099 2.468608 0.982292 0.000000 0.000000 0.000000 0.597651 1.006980 4.410621 -6.835957 -1.213705 -0.688738 -1.631404 -1.085666 9.406677 -0.015559 0.037734 0.144645 -1.619821 -0.048470 10.079703 -11.254660 5.583395 -10.415525 0.000000 0.000000 0.000000 -0.195880 0.343257 7.227190 8.832535 -3.886356 -2.563649 -24.716551 -45.992725 -15.534673 11.573993 -81.422651 5.015185 0.000000 0.000000 0.000000 -4.008986 2.118728 6.043255 -4.370336 2.262754 -15.657381 3.682117 43.199430 -30.800834 -155.397882 76.891934 -161.325298 0.000000 0.000000 0.000000 
-11.253288 82.221352 -1.961692 179.856079 4.368160 -179.609878 -5.148933 -0.842960 15.007794 4.445519 2.407730 -35.646498 -0.074070 2.581354 27.731886 -8.495522 -5.247172 -5.502136 0.000000 0.000000 0.000000 0.938215 -0.970752 13.481298 -5.123101 -8.718888 -26.690655 -1.693258 5.890525 38.306447 7.213213 1.818669 2.048939 0.000000 0.000000 0.000000 0.419422 1.268796 4.863370 -6.742635 -1.258458 -0.717400 -1.661372 -1.113743 9.493557 -0.045839 -0.087367 0.087759 -1.754398 -0.022231 10.366511 -11.404679 5.791623 -10.526648 0.000000 0.000000 0.000000 -0.270674 0.181251 7.452085 9.750874 -4.302115 -2.515160 -25.657520 -48.785647 -12.407512 16.435619 -85.131601 1.751114 0.000000 0.000000 0.000000 -4.166965 2.111710 6.177409 -5.336502 1.662199 -16.240843 5.571750 45.388612 -29.581764 -160.467071 73.223460 -167.572298 0.000000 0.000000 0.000000 
-11.930571 82.385521 -2.596904 179.950445 4.106044 -179.599087 -5.562856 -1.080068 15.274215 4.267695 3.282307 -35.503620 -0.039385 3.575246 27.917341 -8.399720 -5.646117 -5.704268 0.000000 0.000000 0.000000 0.725264 -0.792668 13.860183 -5.041282 -9.034282 -27.086840 -1.912590 5.759613 38.368304 7.172072 1.459557 2.982874 0.000000 0.000000 0.000000 0.099478 1.398301 5.346273 -6.714213 -1.304026 -0.727727 -1.635651 -1.185722 9.579291 -0.066649 -0.104393 0.134202 -1.695508 -0.258903 10.488136 -11.323632 6.096446 -10.611147 0.000000 0.000000 0.000000 -0.316300 0.152132 7.517304 10.600392 -4.736327 -2.274038 -27.356065 -51.587842 -8.663484 36.424917 -88.699746 -16.593685 0.000000 0.000000 0.000000 -4.183491 1.986692 6.268577 -6.213867 1.264394 -16.539061 7.505278 47.296550 -28.021538 -163.430362 69.852003 -171.629745 0.000000 0.000000 0.000000 
-12.548247 82.534554 -3.230576 -179.927318 3.941520 -179.634590 -6.009045 -1.033970 15.511995 4.354160 3.742394 -35.498289 0.017433 4.465497 28.362926 -8.041688 -6.110432 -5.850886 0.000000 0.000000 0.000000 0.430386 -0.867571 14.265829 -4.958415 -9.074279 -27.327645 -1.871979 6.088843 38.253605 7.172503 1.432825 3.781799 0.000000 0.000000 0.000000 -0.334913 1.482891 5.958535 -6.745104 -1.135711 -0.716367 -1.519922 -1.243550 9.591298 -0.040015 -0.151989 0.079131 -1.723428 -0.240382 10.633700 -11.187711 6.300778 -10.642816 0.000000 0.000000 0.000000 -0.303135 -0.001933 7.581702 11.320938 -5.062419 -2.146647 -30.448895 -53.810720 -3.844231 164.881982 -88.290167 -143.379331 0.000000 0.000000 0.000000 -4.236292 2.011797 6.355511 -6.723394 1.022849 -16.684281 9.454086 48.750332 -26.329252 -165.573771 67.111021 -174.669493 0.000000 0.000000 0.000000 
-13.063688 82.679588 -3.868277 -179.840848 3.605580 -179.648756 -6.506337 -0.968715 15.729789 4.681301 3.912906 -35.568675 -0.000962 5.119781 28.887384 -7.566595 -6.788073 -6.035838 0.000000 0.000000 0.000000 0.091590 -1.281084 14.748578 -4.822017 -9.043239 -27.382843 -1.665199 6.613344 37.832626 7.224102 1.628622 4.485492 0.000000 0.000000 0.000000 -0.940668 1.072569 6.581910 -6.926494 -1.008942 -0.659092 -1.419759 -1.054808 9.568897 -0.036928 -0.032854 0.101387 -1.632484 -0.159720 10.675062 -10.961361 6.502409 -10.618928 0.000000 0.000000 0.000000 -0.226654 0.130315 7.622490 11.816092 -5.294736 -1.941064 -34.540943 -55.722603 1.693339 174.136711 -86.516142 -151.029334 0.000000 0.000000 0.000000 -4.152334 2.107658 6.404263 -7.137587 0.993966 -16.676236 11.371721 49.582857 -24.526301 -167.030405 65.133326 -176.849444 0.000000 0.000000 0.000000 
-13.467254 82.820045 -4.520233 -179.772027 3.197505 -179.620369 -7.081801 -1.203161 16.034702 5.184659 3.921154 -35.553976 -0.196060 5.434686 29.333405 -6.689824 -7.413631 -6.203993 0.000000 0.000000 0.000000 -0.286529 -1.994736 15.286327 -4.634489 -9.162986 -27.247610 -1.482434 7.121324 37.097028 7.238961 1.849292 5.116608 0.000000 0.000000 0.000000 -1.631185 0.631276 7.187309 -7.219528 -0.600763 -0.576847 -1.303147 -1.029840 9.474315 -0.043560 -0.104937 0.088646 -1.500053 0.003847 10.654975 -10.718856 6.664958 -10.546721 0.000000 0.000000 0.000000 -0.126419 0.332683 7.496656 12.144949 -5.469179 -1.684922 -39.247834 -57.008990 7.570477 175.002806 -85.571718 -150.362366 0.000000 0.000000 0.000000 -4.017763 2.302282 6.379680 -7.419062 1.076438 -16.568833 12.446136 49.862628 -23.200884 -168.417261 64.014794 -178.717364 0.000000 0.000000 0.000000 
-13.773812 82.955261 -5.141573 -179.577271 2.321379 -179.807284 -7.637757 -1.608831 16.493225 5.870694 3.821956 -35.299579 -0.454922 5.304870 29.664871 -5.663753 -8.140813 -6.435686 0.000000 0.000000 0.000000 -0.798352 -2.742324 15.326448 -4.145674 -9.395156 -27.601232 -0.760348 6.642777 35.526812 7.884098 2.819795 5.641387 0.000000 0.000000 0.000000 -2.304378 -0.222005 7.938118 -7.515796 -0.225313 -0.322566 -1.110132 -0.784689 9.395379 -0.084414 -0.035410 0.032925 -1.425017 0.222401 10.530750 -10.643871 7.075228 -10.448326 0.000000 0.000000 0.000000 -0.002123 0.554326 7.407449 12.279726 -5.713329 -1.518440 -43.868382 -57.931131 13.135012 174.776112 -85.339184 -148.753501 0.000000 0.000000 0.000000 -3.875524 2.420672 6.233467 -7.646339 1.231234 -16.288010 12.839386 49.794251 -22.124765 -169.874127 63.550928 179.621216 0.000000 0.000000 0.000000 
